<?xml version="1.0" encoding="UTF-8"?>
<!DOCTYPE svg PUBLIC "-//W3C//DTD SVG 1.1//EN" "http://www.w3.org/Graphics/SVG/1.1/DTD/svg11.dtd">
<!-- Creator: CorelDRAW X8 -->
<svg xmlns="http://www.w3.org/2000/svg" xml:space="preserve" width="116.47mm" height="25mm" version="1.1" style="shape-rendering:geometricPrecision; text-rendering:geometricPrecision; image-rendering:optimizeQuality; fill-rule:evenodd; clip-rule:evenodd"
viewBox="0 0 11906 2555"
 xmlns:xlink="http://www.w3.org/1999/xlink">
 <defs>
  <style type="text/css">
   <![CDATA[
    .fil0 {fill:#0F55E6}
    .fil1 {fill:#3C3C3C;fill-rule:nonzero}
   ]]>
  </style>
 </defs>
 <g id="图层_x0020_1">
  <metadata id="CorelCorpID_0Corel-Layer"/>
  <g id="_938959424">
   <path class="fil0" d="M962 2156l-129 -75 0 -979 1122 -648 -352 -203 -770 445 0 0 -352 203 0 0 0 0 0 406 0 0 0 573 -129 -75 0 -973 1127 -651 -273 -157c-46,-28 -105,-30 -155,-2l-961 555 0 0 0 0 0 1 0 0 0 0 -1 0 0 0 0 0 0 0 0 0 0 0 0 0 0 0 0 0 -1 0 0 0 0 0 0 0 0 0 0 0 0 0 0 0 0 0 0 0 0 0 0 0 -1 1 0 0 0 0 0 0 0 0 0 0 0 0 0 0 0 0 0 0 0 0 0 0 0 0 0 0 -1 0 0 0 0 0 0 0 0 0 0 0 0 0 0 0 0 0 0 0 0 0 0 0 0 1 0 0 -1 0 0 0 0 0 0 0 0 0 0 0 0 0 0 0 0 0 0 0 0 0 -1 0 0 0 0 0 0 0 0 0 0 0 0 0 0 0 0 0 0 0 0 0 0 1 0 0 -1 0 0 0 0 0 0 0 0 0 0 0 0 0 0 0 0 0 0 0 0 0 0 0 0 0 0 0 -1 0 0 0 0 0 0 0 0 0 0 0 0 0 0 0 0 0 0 0 0 0 0 1 0 0 0 0 0 0 -1 0 0 0 0 0 0 0 0 0 0 0 0 0 0 0 0 0 0 0 0 0 0 0 -7 4 0 0c-1,1 -2,1 -4,2l0 0 -2 2 0 0 -2 1 0 0 -2 1 0 0 -2 2 0 0 -2 1 0 0 -1 2 -1 0 -1 1 -1 0 -1 2 0 0 -2 1 0 0 -2 2 0 0 -1 1 -1 1 -1 1 0 0 -2 2 0 0 -2 1 0 1 -1 1 -1 0 -1 2 0 0 -1 2 -1 0 -1 1 0 1 -2 1 0 1 -1 1 -1 0 -1 2 0 0 -1 2 -1 0 -1 2 0 0 -1 2 0 0 -1 1 -1 1 -1 1 0 1 -1 1 0 1 -1 1 -1 1 -1 1 0 1 -1 2 0 0 -1 2 0 0 -1 2 -1 1 -1 2 0 1 -1 1 0 1 -1 1 -1 1 0 1c-1,3 -3,6 -4,9l0 1 -1 2 0 1 0 1 -1 1 0 1 0 0 -2 5 0 1 0 1 -1 1 0 2 0 1 -1 1 0 1 0 1 0 1 -1 2 0 2 0 1 -1 2 0 1 0 1 0 1 0 2 -1 1 0 1 0 1 0 2 0 1 0 1 0 1 -1 2 0 1 0 1 0 1 0 2 0 1 0 2 0 0 0 0 0 2 0 319 0 0 0 245 0 562 0 0 1 0c0,53 27,105 77,133l699 404 56 32 129 75 87 50c46,27 105,30 155,1l208 -120 753 -435c4,-1 7,-3 10,-5l6 -3c44,-27 74,-75 75,-130l0 -319 -942 544 0 -144 942 -544 0 -101 0 -305 -942 544 0 -144 942 -543 0 -114 -1 0c0,-53 -28,-105 -77,-133l-99 -57 -765 442 0 -1 -352 203 0 0 0 1 0 405 0 144 0 406 0 30z"/>
   <path class="fil1" d="M7691 581c94,0 183,19 265,53 85,35 162,87 226,152 65,64 116,141 152,226 34,82 53,172 53,266 0,94 -19,183 -53,266 -36,85 -87,162 -152,226 -64,64 -141,116 -226,152 -82,34 -171,53 -265,53l-792 0 0 -1394 792 0zm0 235l-557 0 0 924 557 0c62,0 122,-13 176,-35 56,-24 107,-58 149,-101 43,-43 77,-94 101,-150 22,-54 35,-114 35,-176 0,-63 -13,-122 -35,-176 -24,-57 -58,-108 -101,-150 -42,-43 -93,-78 -149,-101 -54,-23 -114,-35 -176,-35zm2971 -223l458 509 470 -521 316 0 -628 697 628 697 -316 0 -470 -522 -470 522 -315 0 627 -697 -627 -697 315 0 12 12zm-5199 567l782 0 0 235 -782 0 0 345 1159 0 0 235 -1394 0 0 -1394 1394 0 0 235 -1159 0 0 344zm3436 0l782 0 0 235 -782 0 0 345 1159 0 0 235 -1394 0 0 -1394 1394 0 0 235 -1159 0 0 344zm-5885 -579l196 0 327 897 326 -897 185 0 326 897 327 -897 250 0 -507 1394 -139 0 -350 -961 -349 961 -139 0 -507 -1394 54 0z"/>
  </g>
 </g>
</svg>
