<?xml version="1.0" encoding="utf-8"?>
<!-- Generator: Adobe Illustrator 23.1.0, SVG Export Plug-In . SVG Version: 6.00 Build 0)  -->
<svg version="1.1" id="图层_1" xmlns="http://www.w3.org/2000/svg" xmlns:xlink="http://www.w3.org/1999/xlink" x="0px" y="0px"
	 viewBox="0 0 158 26" style="enable-background:new 0 0 158 26;" xml:space="preserve">
<style type="text/css">
	.st0{fill:#0F55E6;}
	.st1{fill:#FFFFFF;}
</style>
<g>
	<path class="st0" d="M9.4,21.9l-1.3-0.8v-9.9l11.4-6.6L16,2.6L8.1,7.1l0,0L4.5,9.1l0,0l0,0v4.1l0,0v5.8l-1.3-0.8V8.4l11.4-6.6
		l-2.8-1.6c-0.5-0.3-1.1-0.3-1.6,0L0.6,5.8l0,0l0,0l0,0l0,0l0,0l0,0l0,0l0,0l0,0l0,0l0,0l0,0l0,0l0,0l0,0l0,0l0,0l0,0l0,0l0,0l0,0
		l0,0l0,0l0,0l0,0l0,0l0,0l0,0l0,0l0,0l0,0l0,0l0,0l0,0l0,0l0,0l0,0l0,0l0,0l0,0l0,0l0,0l0,0l0,0l0,0l0,0l0,0l0,0l0,0l0,0l0,0l0,0
		l0,0l0,0l0,0l0,0l0,0l0,0l0,0l0,0l0,0l0,0l0,0l0,0l0,0l0,0l0,0l0,0l0,0l0,0l0,0l0,0l0,0l0,0l0,0l0,0l0,0l0,0l0,0l0,0l0,0l0,0l0,0
		l0,0l0,0l0,0l0,0l0,0l0,0l0,0l0,0l0,0l0,0l0,0l0,0l0,0l0,0l0,0l0,0l0,0l0,0l0,0l0,0l0,0l0,0l0,0l0,0l0,0l0,0l0,0l0,0l0,0l0,0l0,0
		l0,0l0,0l0,0l0,0l0,0l-0.1,0l0,0c0,0,0,0,0,0l0,0l0,0l0,0h0l0,0h0l0,0l0,0l0,0h0l0,0v0l0,0l0,0l0,0v0l0,0h0l0,0l0,0l0,0l0,0l0,0
		l0,0l0,0l0,0l0,0h0l0,0l0,0l0,0v0l0,0v0l0,0l0,0l0,0h0l0,0l0,0l0,0v0l0,0v0l0,0v0l0,0v0l0,0l0,0l0,0l0,0l0,0l0,0l0,0l0,0l0,0l0,0
		l0,0v0l0,0v0l0,0v0l0,0v0l0,0l0,0l0,0l0,0l0,0l0,0c0,0,0,0.1,0,0.1l0,0v0l0,0l0,0l0,0l0,0l0,0l0,0l0,0l0,0l0,0v0l0,0l0,0l0,0l0,0
		l0,0v0V7l0,0v0l0,0l0,0l0,0v0l0,0l0,0l0,0v0l0,0l0,0l0,0v0l0,0l0,0l0,0v0l0,0v0l0,0l0,0v0v3.2l0,0V13v5.8l0,0l0,0
		c0,0.6,0.3,1.1,0.8,1.4l7.1,4.1l0.6,0.3l1.3,0.8l0.9,0.5c0.5,0.3,1.1,0.3,1.6,0l2.1-1.2l7.3-4.4c0,0,0.1,0,0.1,0l0.1,0
		c0.4-0.3,0.8-0.8,0.8-1.3v-3.2L13,21v-1.5l9.6-5.5v-1V9.9L13,15.4V14l9.6-5.5V7.3l0,0c0-0.6-0.3-1.1-0.8-1.4l-1-0.6L13,9.8l0,0
		l-3.6,2.1l0,0l0,0V16v1.5v4.2L9.4,21.9L9.4,21.9z"/>
	<path class="st1" d="M77.9,5.9c1,0,1.9,0.2,2.7,0.6c0.9,0.4,1.7,0.9,2.3,1.5c0.7,0.7,1.2,1.4,1.5,2.3c0.3,0.8,0.6,1.8,0.6,2.7
		s-0.2,1.9-0.6,2.7c-0.4,0.9-0.9,1.7-1.5,2.3c-0.7,0.7-1.4,1.2-2.3,1.5c-0.8,0.3-1.7,0.6-2.7,0.6h-8.1V5.9H77.9z M77.9,8.3h-5.6v9.4
		h5.6c0.6,0,1.2-0.1,1.8-0.4c0.6-0.3,1.1-0.6,1.5-1c0.4-0.4,0.8-1,1-1.5c0.2-0.6,0.4-1.2,0.4-1.8c0-0.6-0.1-1.2-0.4-1.8
		c-0.3-0.6-0.6-1.1-1-1.5s-1-0.8-1.5-1C79.1,8.4,78.5,8.3,77.9,8.3z M108.1,6l4.7,5.2l4.8-5.3h3.2l-6.4,7.1l6.4,7.1h-3.2l-4.8-5.3
		l-4.8,5.3h-3.2l6.3-7.1l-6.4-7.1h3.2L108.1,6z M55.2,11.8h8v2.4h-8v3.5H67v2.4H52.8V5.9H67v2.4H55.2L55.2,11.8L55.2,11.8z
		 M90.1,11.8h8v2.4h-8v3.5h11.8v2.4H87.7V5.9h14.2v2.4H90.1V11.8L90.1,11.8z M30.3,5.9h2l3.3,9.1l3.3-9.1h1.9l3.3,9.1l3.3-9.1H50
		l-5.2,14.2h-1.4l-3.6-9.8l-3.5,9.8h-1.4L29.7,5.9H30.3z"/>
	<g>
		<path class="st1" d="M129.2,9.7h1.5v4c0.6-0.8,1.3-1.3,2.2-1.3c1,0,1.8,0.4,2.5,1.1c0.6,0.7,0.8,1.6,0.8,2.6c0,1.1-0.3,2-0.8,2.7
			c-0.6,0.8-1.4,1.1-2.5,1.1c-1,0-1.7-0.4-2.2-1.1v0.9h-1.4L129.2,9.7L129.2,9.7z M131.3,14.3c-0.4,0.5-0.6,1.1-0.6,1.9v0.1
			c0,0.7,0.1,1.3,0.5,1.8c0.4,0.5,0.8,0.8,1.5,0.8c0.7,0,1.2-0.3,1.6-0.8c0.3-0.5,0.4-1.1,0.4-1.9c0-0.8-0.1-1.4-0.5-1.8
			c-0.3-0.5-0.9-0.7-1.6-0.7C132,13.7,131.6,13.9,131.3,14.3z"/>
		<path class="st1" d="M143.8,13.7c0.6,0.7,0.8,1.7,0.9,3h-5.5c0.1,0.7,0.3,1.2,0.6,1.6c0.3,0.4,0.8,0.6,1.4,0.6
			c0.5,0,0.9-0.1,1.2-0.4c0.2-0.2,0.4-0.5,0.7-0.9h1.5c-0.2,0.7-0.5,1.2-1,1.7c-0.6,0.6-1.4,0.8-2.4,0.8c-1.1,0-1.9-0.3-2.5-1
			c-0.7-0.7-1-1.7-1-2.8c0-1.1,0.3-2,1-2.7c0.6-0.7,1.5-1.1,2.5-1.1C142.3,12.5,143.1,12.9,143.8,13.7z M139.8,14.2
			c-0.3,0.3-0.5,0.8-0.6,1.4h3.9c-0.1-1.2-0.8-1.9-2-1.9C140.5,13.7,140.1,13.8,139.8,14.2z"/>
		<path class="st1" d="M148.5,10.3v2.3h1.7v1.2h-1.7v4.2c0,0.2,0,0.3,0.1,0.4c0.1,0.1,0.2,0.1,0.4,0.1h1v1.2h-1.2
			c-0.6,0-1.1-0.1-1.4-0.5c-0.3-0.3-0.4-0.7-0.4-1.3v-4.2h-1.4v-1.2h1.4v-1.7L148.5,10.3z"/>
		<path class="st1" d="M157.3,13.2c0.4,0.5,0.7,1.1,0.7,2v4.6h-1.4v-1c-0.3,0.4-0.6,0.7-1.1,0.9c-0.5,0.2-1,0.3-1.7,0.3
			c-0.7,0-1.3-0.2-1.8-0.6c-0.4-0.4-0.7-0.9-0.7-1.5c0-0.9,0.4-1.6,1.1-2c0.6-0.4,1.4-0.6,2.4-0.6h1.6v-0.2c0-1-0.6-1.5-1.7-1.5
			c-0.5,0-0.9,0.1-1.2,0.3c-0.3,0.2-0.5,0.5-0.6,1h-1.5c0.1-0.8,0.5-1.5,1.1-1.9c0.5-0.4,1.2-0.5,2.2-0.5
			C156.1,12.5,156.8,12.7,157.3,13.2z M156.5,16.5H155c-1.4,0-2,0.5-2,1.4c0,0.3,0.1,0.5,0.3,0.7s0.5,0.3,0.9,0.3
			c0.7,0,1.2-0.2,1.7-0.6c0.4-0.4,0.6-0.9,0.6-1.5V16.5z"/>
	</g>
</g>
</svg>
